<svg width="138" height="63" viewBox="0 0 138 63" fill="none" xmlns="http://www.w3.org/2000/svg">
<g clip-path="url(#clip0_354_229)">
<path d="M126.778 35.9678L126.991 35.9475C127.408 35.9325 127.82 35.9181 128.229 35.9038C129.524 35.8585 130.786 35.8143 132.047 35.7561C133.449 35.7016 134.894 35.4964 136.2 34.728C136.94 34.2994 137.487 33.7534 137.718 33.0578C137.951 32.3545 137.827 31.5995 137.434 30.8281C136.222 28.4467 134.5 26.5003 131.516 26.0388C130.066 25.8106 128.568 25.6514 127.066 25.9346C124.234 26.4555 121.412 27.0173 118.614 27.6732C117.477 27.9348 116.393 28.4383 115.38 28.9093C115.305 28.9443 115.23 28.9792 115.155 29.0138L115.154 29.0145C114.222 29.4502 113.496 30.1678 112.984 31.0594L112.984 31.0594L112.981 31.0649C112.675 31.6156 112.476 32.1683 112.619 32.7155C112.763 33.2648 113.21 33.6498 113.763 33.9789L113.764 33.9799C115.634 35.0821 117.683 35.5608 119.732 35.8709C122.122 36.2395 124.501 36.1833 126.778 35.9678Z" fill="white" stroke="#D9D9D9"/>
<path d="M123.797 54.7914L123.799 54.7924C124.81 55.3722 125.777 56.0098 126.757 56.6562C127.284 57.0038 127.814 57.354 128.358 57.6991C129.07 58.1575 129.794 58.6113 130.407 58.9961C130.506 59.0582 130.603 59.1186 130.695 59.1768L130.732 59.2623L130.952 59.3309C131.222 59.4153 131.457 59.4954 131.681 59.5718C131.798 59.6116 131.911 59.6504 132.026 59.6884C132.35 59.7959 132.666 59.8913 132.996 59.9508C133.8 60.0988 134.553 59.9729 135.13 59.5453C135.711 59.1151 136.042 58.4325 136.102 57.6132L136.102 57.6132L136.102 57.6118C136.178 56.5237 136.115 55.4197 136.014 54.3637L136.014 54.3619C135.803 52.238 134.795 50.417 133.03 49.2307C132.771 49.0552 132.51 48.8742 132.246 48.6914C130.356 47.3815 128.325 45.9734 125.733 45.7251L125.731 45.7249C125.274 45.6834 124.807 45.5586 124.312 45.3977C124.128 45.338 123.93 45.2695 123.726 45.1991C123.413 45.091 123.088 44.9786 122.782 44.8869L122.778 44.8856C122.524 44.8122 122.273 44.7308 122.014 44.6467C121.947 44.625 121.879 44.6031 121.811 44.5811C121.483 44.4755 121.143 44.3696 120.798 44.2849L120.798 44.2848L120.793 44.2837C119.703 44.0277 118.528 43.9125 117.363 44.3777C116.694 44.6419 116.171 45.0824 115.918 45.6782C115.663 46.2812 115.72 46.9605 116.053 47.6217L116.053 47.6218L116.056 47.6275C116.487 48.4575 117.019 49.25 117.606 49.9734C119.309 52.1003 121.557 53.4953 123.797 54.7914Z" fill="white" stroke="#D9D9D9"/>
<path d="M120.519 14.9413L120.171 15.0285C119.817 15.1175 119.447 15.2115 119.066 15.3084C118.021 15.5742 116.889 15.8617 115.759 16.1261C115.247 16.2468 114.717 16.2267 114.256 16.1953C113.766 16.1661 113.308 15.9841 112.997 15.6236C112.679 15.2542 112.573 14.763 112.675 14.2406C112.833 13.428 113.084 12.507 113.576 11.7588C114.221 10.775 115.039 9.91102 115.852 9.11954L115.855 9.11686L115.855 9.11687C116.04 8.93938 116.226 8.76091 116.412 8.58192C117.8 7.24623 119.218 5.88231 120.773 4.69013L120.773 4.68983C124.091 2.15225 127.9 1.15331 132.071 2.15292L132.071 2.15292C133.28 2.44282 134.19 3.01168 134.456 3.92991C134.719 4.83974 134.27 5.82609 133.43 6.75643C132.744 7.5219 131.899 8.16078 131.063 8.68903C128.766 10.1458 126.438 11.5576 124.096 12.9316L120.519 14.9413ZM120.519 14.9413L120.528 14.8291M120.519 14.9413L120.528 14.8291M120.528 14.8291C120.854 14.6591 121.173 14.4952 121.485 14.3345C122.405 13.8616 123.27 13.4171 124.096 12.9317L120.528 14.8291Z" fill="white" stroke="#D9D9D9"/>
</g>
<defs>
<clipPath id="clip0_354_229">
<rect width="137.045" height="62.1198" fill="white" transform="translate(137.322 62.2422) rotate(-180)"/>
</clipPath>
</defs>
</svg>
