<svg width="139" height="65" viewBox="0 0 139 65" fill="none" xmlns="http://www.w3.org/2000/svg">
<g clip-path="url(#clip0_354_225)">
<path d="M11.3819 26.5592L11.1677 26.5761C10.7511 26.5846 10.3389 26.5925 9.92981 26.6004C8.63435 26.6254 7.37144 26.6497 6.10949 26.6882C4.70709 26.7207 3.25914 26.9032 1.9414 27.651C1.19433 28.068 0.638554 28.6053 0.397248 29.2972C0.15326 29.9968 0.265436 30.7536 0.646323 31.5311C1.82015 33.9312 3.51211 35.9043 6.48809 36.4126C7.93434 36.6635 9.42987 36.8463 10.9365 36.5866C13.7759 36.1102 16.6066 35.5928 19.4144 34.9808C20.5557 34.7371 21.6465 34.2506 22.6669 33.7956C22.7428 33.7617 22.8184 33.728 22.8935 33.6946L22.8952 33.6939C23.8332 33.2729 24.5708 32.5668 25.0963 31.6833L25.0963 31.6834L25.0995 31.6778C25.4148 31.1321 25.6221 30.5826 25.4874 30.0332C25.3521 29.4816 24.9118 29.0897 24.3639 28.752L24.3622 28.7509C22.5102 27.6196 20.4691 27.1088 18.4251 26.7666C16.0413 26.3605 13.6617 26.3794 11.3819 26.5592Z" fill="white" stroke="#D9D9D9"/>
<path d="M14.6576 7.78459L14.6559 7.78358C13.6538 7.18799 12.6974 6.53532 11.7278 5.87366C11.2064 5.5178 10.6811 5.15935 10.1429 4.80578C9.43817 4.33622 8.72176 3.87112 8.11432 3.47676C8.01622 3.41308 7.92097 3.35124 7.82907 3.29153L7.79372 3.20554L7.57532 3.1335C7.30639 3.04479 7.07292 2.96108 6.85009 2.88118C6.73394 2.83953 6.62068 2.79892 6.50679 2.75917C6.18428 2.64663 5.87041 2.54622 5.54115 2.48158C4.73939 2.32097 3.98464 2.4351 3.40088 2.85359C2.8136 3.27459 2.4717 3.95187 2.39905 4.77016L2.39905 4.77016L2.39892 4.77159C2.30558 5.85833 2.35141 6.96317 2.43579 8.02065L2.43593 8.02242C2.61328 10.1493 3.59298 11.986 5.33881 13.1998C5.59541 13.3794 5.85355 13.5644 6.11441 13.7513C7.98348 15.0908 9.99248 16.5305 12.5794 16.8194L12.5818 16.8196C13.0381 16.8684 13.5028 17.0004 13.9957 17.169C14.1789 17.2317 14.376 17.3033 14.5783 17.3768C14.8896 17.4899 15.2131 17.6074 15.5174 17.7039L15.5219 17.7052C15.7741 17.7826 16.0239 17.8679 16.2818 17.9561C16.3485 17.9788 16.4157 18.0018 16.4837 18.0249C16.8097 18.1355 17.148 18.2468 17.492 18.3369L17.492 18.3369L17.4967 18.3381C18.5821 18.6112 19.7556 18.7448 20.9278 18.2979C21.6012 18.0443 22.131 17.612 22.3926 17.0203C22.6573 16.4214 22.6109 15.7412 22.2885 15.0749L22.2886 15.0749L22.2857 15.069C21.8675 14.2325 21.3477 13.4316 20.7729 12.6992C19.1033 10.5458 16.8773 9.11571 14.6576 7.78459Z" fill="white" stroke="#D9D9D9"/>
<path d="M17.3098 47.682L17.6587 47.6002C18.0143 47.5168 18.3856 47.4286 18.7683 47.3377C19.8177 47.0883 20.9533 46.8186 22.0878 46.5719C22.6013 46.4593 23.1314 46.4877 23.5916 46.5264C24.0807 46.5632 24.5364 46.7523 24.8412 47.1177C25.1535 47.492 25.2516 47.9848 25.1419 48.5055C24.9713 49.3157 24.7059 50.2326 24.2022 50.9729C23.5414 51.9465 22.7105 52.7976 21.8847 53.5762L21.8819 53.5788L21.8819 53.5788C21.6939 53.7534 21.5056 53.9289 21.3168 54.105C19.9077 55.4187 18.4688 56.7602 16.8949 57.9279L16.8945 57.9282C13.5376 60.4134 9.71344 61.3525 5.55894 60.2875L5.55893 60.2875C4.35416 59.9787 3.45295 59.3956 3.20162 58.4734C2.95259 57.5595 3.41708 56.5803 4.27183 55.6633C4.97026 54.9087 5.82479 54.2831 6.66903 53.768C8.98808 52.3474 11.3381 50.9724 13.7015 49.6353L17.3098 47.682ZM17.3098 47.682L17.2989 47.794M17.3098 47.682L17.2989 47.794M17.2989 47.794C16.9703 47.9588 16.6489 48.1178 16.3339 48.2735C15.4067 48.732 14.5352 49.1628 13.7016 49.6352L17.2989 47.794Z" fill="white" stroke="#D9D9D9"/>
</g>
<defs>
<clipPath id="clip0_354_225">
<rect width="137.045" height="62.1198" fill="white" transform="translate(1.25122 0.123047) rotate(0.898781)"/>
</clipPath>
</defs>
</svg>
