<svg width="113" height="110" viewBox="0 0 113 110" fill="none" xmlns="http://www.w3.org/2000/svg">
<g clip-path="url(#clip0_470_2033)">
<path d="M107.5 110H2.5C1.12 110 0 108.88 0 107.5V2.5C0 1.12 1.12 0 2.5 0C3.88 0 5 1.12 5 2.5V105H107.5C108.88 105 110 106.12 110 107.5C110 108.88 108.88 110 107.5 110Z" fill="#E61A6B"/>
<path d="M3.90961 65.5391L1.09961 61.4091L53.6396 25.6791C54.8596 24.8491 56.4396 24.7491 57.7596 25.4291L76.5896 35.1291L97.3396 12.5391L101.02 15.9191L79.7696 39.0491C78.5396 40.3891 76.5596 40.7391 74.9496 39.9091L55.9796 30.1391L3.90961 65.5391Z" fill="#E61A6B"/>
<path d="M112.2 2.1493L103.86 24.6493C103.35 26.0193 101.39 25.9693 100.96 24.5693L98.3703 16.2493C98.2103 15.7193 97.7703 15.3293 97.2403 15.2093L88.7303 13.3393C87.3003 13.0293 87.0803 11.0793 88.4103 10.4593L110.11 0.229304C111.35 -0.350696 112.68 0.859304 112.2 2.1493Z" fill="#E61A6B"/>
<path d="M16.1396 67.6401V96.5901H30.1996V58.0801L16.1396 67.6401Z" fill="#E61A6B"/>
<path d="M37.4697 53.1401V96.5901H51.5297V43.5801L37.4697 53.1401Z" fill="#E61A6B"/>
<path d="M58.7998 41.8398V96.5898H72.8598V49.0898L58.7998 41.8398Z" fill="#E61A6B"/>
<path d="M80.1396 49.6108V96.5908H94.1996V34.3008L80.1396 49.6108Z" fill="#E61A6B"/>
</g>
<defs>
<clipPath id="clip0_470_2033">
<rect width="112.3" height="110" fill="white"/>
</clipPath>
</defs>
</svg>
