<svg width="101" height="144" viewBox="0 0 101 144" fill="none" xmlns="http://www.w3.org/2000/svg">
<g clip-path="url(#clip0_470_2058)">
<path d="M79.4508 143.999H6.65142C2.989 143.999 0 141.024 0 137.379V27.4587C0 23.8131 2.989 20.8379 6.65142 20.8379H24.5736C25.8732 20.8379 26.9365 21.8963 26.9365 23.1899C26.9365 24.4835 25.8732 25.5419 24.5736 25.5419H6.65142C5.58814 25.5419 4.7257 26.4003 4.7257 27.4587V137.379C4.7257 138.437 5.58814 139.295 6.65142 139.295H79.4508C79.9588 139.295 80.4432 139.095 80.8095 138.731L95.6954 123.913C96.0498 123.561 96.2625 123.067 96.2625 122.561V27.4587C96.2625 26.4003 95.4 25.5419 94.3368 25.5419H76.4146C75.115 25.5419 74.0517 24.4835 74.0517 23.1899C74.0517 21.8963 75.115 20.8379 76.4146 20.8379H94.3368C97.9992 20.8379 100.988 23.8131 100.988 27.4587V122.561C100.988 124.325 100.291 125.995 99.0388 127.241L84.1529 142.059C82.9006 143.306 81.223 143.999 79.4508 143.999Z" fill="#E61A6B"/>
<path d="M81.2349 143.166C79.9354 143.166 78.8721 142.108 78.8721 140.814V128.595C78.8721 124.95 81.8611 121.975 85.5235 121.975H97.7985C99.0981 121.975 100.161 123.033 100.161 124.327C100.161 125.62 99.0981 126.679 97.7985 126.679H85.5235C84.4602 126.679 83.5978 127.537 83.5978 128.595V140.814C83.5978 142.108 82.5345 143.166 81.2349 143.166Z" fill="#E61A6B"/>
<path d="M66.951 14.8066H62.0953V21.9331C62.0953 23.556 60.7721 24.8614 59.1536 24.8614H41.8457C40.2153 24.8614 38.9039 23.5442 38.9039 21.9331V14.8066H34.0483C32.0871 14.8066 30.4922 16.3942 30.4922 18.3464V27.4603C30.4922 29.4124 32.0871 31 34.0483 31H66.9628C68.9239 31 70.5189 29.4124 70.5189 27.4603V18.3464C70.5189 16.3942 68.9239 14.8066 66.9628 14.8066H66.951Z" fill="#E61A6B"/>
<path d="M66.9511 31.4936H34.0366C31.8155 31.4936 29.9961 29.6944 29.9961 27.4717V18.3578C29.9961 16.147 31.8037 14.3359 34.0366 14.3359H38.8922C39.1521 14.3359 39.3766 14.5476 39.3766 14.8181V21.9446C39.3766 23.297 40.4871 24.4024 41.8458 24.4024H59.1537C60.5123 24.4024 61.6228 23.297 61.6228 21.9446V14.8181C61.6228 14.5594 61.8355 14.3359 62.1072 14.3359H66.9629C69.184 14.3359 71.0033 16.1352 71.0033 18.3578V27.4717C71.0033 29.6826 69.1958 31.4936 66.9629 31.4936H66.9511ZM34.0366 15.2885C32.3353 15.2885 30.953 16.6644 30.953 18.3578V27.4717C30.953 29.1652 32.3353 30.5411 34.0366 30.5411H66.9511C68.6523 30.5411 70.0346 29.1652 70.0346 27.4717V18.3578C70.0346 16.6644 68.6523 15.2885 66.9511 15.2885H62.5798V21.9328C62.5798 23.8144 61.0439 25.3432 59.1537 25.3432H41.8458C39.9555 25.3432 38.4197 23.8144 38.4197 21.9328V15.2885H34.0484H34.0366Z" fill="#E61A6B"/>
<path d="M56.2006 14.8066H44.7881V18.9932H56.2006V14.8066Z" fill="#E61A6B"/>
<path d="M56.2124 19.4751H44.7998C44.5399 19.4751 44.3154 19.2634 44.3154 18.9929V14.8064C44.3154 14.5477 44.5281 14.3242 44.7998 14.3242H56.2124C56.4723 14.3242 56.6968 14.5359 56.6968 14.8064V18.9929C56.6968 19.2516 56.4841 19.4751 56.2124 19.4751ZM45.2724 18.5225H55.728V15.2885H45.2724V18.5225Z" fill="#E61A6B"/>
<path d="M50.4938 0C45.7091 0 41.834 3.85725 41.834 8.62001V21.9322H59.1419V8.62001C59.1419 3.85725 55.2668 0 50.482 0H50.4938ZM50.4938 14.4882C48.5445 14.4882 46.9614 12.9124 46.9614 10.972C46.9614 9.0316 48.5445 7.45578 50.4938 7.45578C52.4432 7.45578 54.0263 9.0316 54.0263 10.972C54.0263 12.9124 52.4432 14.4882 50.4938 14.4882Z" fill="#E61A6B"/>
<path d="M67.0101 43.3465H12.7945C11.4949 43.3465 10.4316 42.2881 10.4316 40.9946C10.4316 39.701 11.4949 38.6426 12.7945 38.6426H67.0101C68.3096 38.6426 69.3729 39.701 69.3729 40.9946C69.3729 42.2881 68.3096 43.3465 67.0101 43.3465Z" fill="#E61A6B"/>
<path d="M67.0101 55.2001H12.7945C11.4949 55.2001 10.4316 54.1417 10.4316 52.8481C10.4316 51.5545 11.4949 50.4961 12.7945 50.4961H67.0101C68.3096 50.4961 69.3729 51.5545 69.3729 52.8481C69.3729 54.1417 68.3096 55.2001 67.0101 55.2001Z" fill="#E61A6B"/>
<path d="M88.193 67.0555H12.7945C11.4949 67.0555 10.4316 65.9971 10.4316 64.7035C10.4316 63.41 11.4949 62.3516 12.7945 62.3516H88.193C89.4926 62.3516 90.5559 63.41 90.5559 64.7035C90.5559 65.9971 89.4926 67.0555 88.193 67.0555Z" fill="#E61A6B"/>
<path d="M88.193 78.8973H12.7945C11.4949 78.8973 10.4316 77.8389 10.4316 76.5453C10.4316 75.2517 11.4949 74.1934 12.7945 74.1934H88.193C89.4926 74.1934 90.5559 75.2517 90.5559 76.5453C90.5559 77.8389 89.4926 78.8973 88.193 78.8973Z" fill="#E61A6B"/>
<path d="M88.193 90.7508H12.7945C11.4949 90.7508 10.4316 89.6924 10.4316 88.3989C10.4316 87.1053 11.4949 86.0469 12.7945 86.0469H88.193C89.4926 86.0469 90.5559 87.1053 90.5559 88.3989C90.5559 89.6924 89.4926 90.7508 88.193 90.7508Z" fill="#E61A6B"/>
<path d="M88.193 102.604H12.7945C11.4949 102.604 10.4316 101.546 10.4316 100.252C10.4316 98.9588 11.4949 97.9004 12.7945 97.9004H88.193C89.4926 97.9004 90.5559 98.9588 90.5559 100.252C90.5559 101.546 89.4926 102.604 88.193 102.604Z" fill="#E61A6B"/>
<path d="M88.2054 44.5234H78.376V54.2959H88.2054V44.5234Z" fill="#E61A6B"/>
<path d="M88.1932 56.66H78.3755C77.076 56.66 76.0127 55.6016 76.0127 54.3081V44.5356C76.0127 43.242 77.076 42.1836 78.3755 42.1836H88.1932C89.4928 42.1836 90.556 43.242 90.556 44.5356V54.3081C90.556 55.6016 89.4928 56.66 88.1932 56.66ZM80.7384 51.9561H85.8303V46.8876H80.7384V51.9561Z" fill="#E61A6B"/>
</g>
<defs>
<clipPath id="clip0_470_2058">
<rect width="101" height="144" fill="white"/>
</clipPath>
</defs>
</svg>
