<svg width="82" height="72" viewBox="0 0 82 72" fill="none" xmlns="http://www.w3.org/2000/svg">
<g clip-path="url(#clip0_323_664)">
<path d="M76.3281 33.4753C74.4129 34.3736 72.5043 35.2785 70.5891 36.1835C71.0528 35.3992 71.4493 34.5613 71.7449 33.6429C72.5043 31.29 70.3539 28.8499 68.0757 28.7627C68.0623 28.6488 68.0421 28.5348 68.0152 28.4209C71.5165 26.4501 74.9303 24.3586 77.652 21.342C80.6022 18.064 76.9329 13.4118 73.0083 15.3424C67.6927 17.9568 62.377 20.5711 57.0613 23.1855C57.7602 22.3945 58.3381 21.5364 58.701 20.5443C60.8985 19.1299 63.0557 17.6752 65.1726 16.1468C69.0837 13.3247 65.5624 6.88262 61.3085 9.55061C58.6204 11.2399 55.892 12.842 53.1232 14.3838C54.0238 12.1717 51.9338 9.37632 49.4809 9.20203C49.8908 7.57979 49.1113 5.58886 47.6866 4.81125C45.0523 3.3633 42.6666 4.14091 39.9315 4.95873C36.3227 6.03799 32.7543 7.25132 29.2329 8.59201C22.4992 11.1594 15.9538 14.176 9.6166 17.6015C6.64627 19.2036 7.41237 22.4615 9.55612 23.8759C6.94868 25.1161 4.3614 26.3696 1.82116 27.6902C-0.70564 29.0041 -0.36291 32.3826 1.3709 34.0116C-0.631718 36.8807 2.69479 41.2982 6.51187 39.4481C9.03194 38.2281 11.5453 36.9812 14.0519 35.7411C14.1796 36.3444 14.4619 36.9209 14.8584 37.4102C12.5332 38.9252 10.2349 40.4737 7.98359 42.0758C4.04555 44.8779 7.54678 51.2529 11.8477 48.6721C14.4081 47.137 16.9618 45.6086 19.5222 44.0735C19.3878 44.5829 19.3743 45.1125 19.4483 45.6287C17.4456 47.1303 15.443 48.6385 13.4538 50.1669C10.3088 52.5869 11.9956 57.2659 15.2145 57.3329C15.4901 58.0435 15.9538 58.6736 16.5384 59.1094C16.5048 59.1362 16.4779 59.1563 16.4443 59.1831C13.138 61.965 17.4792 67.6026 21.088 65.1827C21.1283 65.1559 21.1619 65.1358 21.2022 65.109C21.8743 67.2541 24.4347 68.9098 26.8271 67.5021C28.3189 66.624 29.8108 65.7458 31.3027 64.8676C32.1427 66.7245 34.3739 68.1054 36.7663 66.9658C37.8079 66.4698 38.8495 65.9871 39.8912 65.4978C37.109 68.521 40.2675 73.6425 44.4407 71.484C45.4555 70.9611 46.4568 70.4047 47.4447 69.8416C48.5199 70.6326 49.9782 70.941 51.5037 70.2304C57.2763 67.5289 62.3434 63.6208 66.4158 58.7273C67.8875 56.9642 67.6725 54.98 66.5905 53.6997C66.9131 53.103 67.2088 52.4863 67.4642 51.8428C67.6523 51.3669 67.6994 50.8708 67.6322 50.3881C72.5581 47.3582 77.2421 43.9461 80.9718 39.4883C83.7876 36.1232 80.3401 31.6117 76.3281 33.4887V33.4753Z" fill="#D9D9D9" fill-opacity="0.35"/>
</g>
<path d="M46.0684 53.7461V62.8727" stroke="#E61A6B" stroke-width="2" stroke-linejoin="round"/>
<path d="M29.2275 13.5015C29.2275 19.0222 33.559 23.496 38.9041 23.496C44.2491 23.496 48.5806 19.0222 48.5806 13.5015C48.5806 7.98082 44.2578 3.49805 38.9041 3.49805C33.5504 3.49805 29.2275 7.97187 29.2275 13.5015Z" stroke="#E61A6B" stroke-width="2" stroke-linejoin="round"/>
<path d="M19.7418 51.4111C20.816 52.1896 21.5437 53.2901 21.8902 54.4354C22.2367 55.5628 22.2108 56.7171 21.8123 57.6298C21.5004 58.3187 20.9806 58.8377 20.738 59.1061C18.7975 61.3251 17.2815 60.144 14.9512 58.4798C13.4698 57.424 12.1011 56.4039 11.7459 55.2407C11.6073 54.7844 11.6246 54.3012 11.8585 53.7823C12.0577 53.3617 12.1963 53.2275 12.8287 52.4938C14.5613 50.4985 17.4115 49.7379 19.7418 51.4111Z" stroke="#E61A6B" stroke-width="2" stroke-linejoin="round"/>
<path d="M41.832 41.3549C40.368 46.124 36.1491 52.9868 28.5517 53.6937C26.2387 53.9085 25.5196 56.2885 25.9008 58.6954C26.23 60.7534 27.9799 61.5676 30.085 61.5676C46.7873 60.4045 51.9764 45.3456 52.167 36.6842C52.167 30.9219 47.6449 27.2266 42.0659 27.2266H35.8459C34.9103 27.2266 33.4376 27.325 32.0948 27.5666" stroke="#E61A6B" stroke-width="2" stroke-linejoin="round"/>
<path d="M29.6176 28.9986C29.6176 32.8192 26.6202 35.9151 22.9211 35.9151C19.222 35.9151 16.2246 32.8192 16.2246 28.9986C16.2246 25.1779 19.222 22.082 22.9211 22.082C26.6202 22.082 29.6176 25.1779 29.6176 28.9986Z" stroke="#E61A6B" stroke-width="2" stroke-linejoin="round"/>
<path d="M26.1692 59.6083L21.0234 58.7852" stroke="#E61A6B" stroke-width="1.27756" stroke-linejoin="round"/>
<path d="M30.6572 61.5313L34.8241 66.7567C35.1446 67.1683 36.7213 68.1973 38.4019 66.9715C39.866 65.9067 40.0825 64.2067 39.3722 63.2224L37.3277 59.9297" stroke="#E61A6B" stroke-width="2" stroke-linejoin="round"/>
<path d="M20.7635 44.2821C23.0679 48.4069 27.1395 51.6997 31.7741 52.5497C33.1862 52.8092 34.8149 51.4939 35.0661 50.0354C35.3173 48.5769 34.425 46.9485 33.013 46.689C30.8992 46.2953 29.5997 45.5437 28.3003 44.1031C26.4637 42.0541 26.0479 39.7366 24.6965 38.3677C24.0468 37.7055 22.9119 36.5781 20.7375 36.5781C18.2253 36.5781 15.8516 38.4571 14.8987 40.9804C13.7985 43.8794 13.0448 48.0401 13.0968 52.0128" stroke="#E61A6B" stroke-width="2" stroke-linejoin="round"/>
<defs>
<clipPath id="clip0_323_664">
<rect width="82" height="68" fill="white" transform="translate(0 4)"/>
</clipPath>
</defs>
</svg>
