<svg width="89" height="78" viewBox="0 0 89 78" fill="none" xmlns="http://www.w3.org/2000/svg">
<g clip-path="url(#clip0_323_665)">
<path d="M83.3281 32.4753C81.4129 33.3736 79.5043 34.2785 77.5891 35.1835C78.0528 34.3992 78.4493 33.5613 78.7449 32.6429C79.5043 30.29 77.3539 27.8499 75.0757 27.7627C75.0623 27.6488 75.0421 27.5348 75.0152 27.4209C78.5165 25.4501 81.9303 23.3586 84.652 20.342C87.6022 17.064 83.9329 12.4118 80.0083 14.3424C74.6927 16.9568 69.377 19.5711 64.0613 22.1855C64.7602 21.3945 65.3381 20.5364 65.701 19.5443C67.8985 18.1299 70.0557 16.6752 72.1726 15.1468C76.0837 12.3247 72.5624 5.88262 68.3085 8.55061C65.6204 10.2399 62.892 11.842 60.1232 13.3838C61.0238 11.1717 58.9338 8.37632 56.4809 8.20203C56.8908 6.57979 56.1113 4.58886 54.6866 3.81125C52.0523 2.3633 49.6666 3.14091 46.9315 3.95873C43.3227 5.03799 39.7543 6.25132 36.2329 7.59201C29.4992 10.1594 22.9538 13.176 16.6166 16.6015C13.6463 18.2036 14.4124 21.4615 16.5561 22.8759C13.9487 24.1161 11.3614 25.3696 8.82116 26.6902C6.29436 28.0041 6.63709 31.3826 8.3709 33.0116C6.36828 35.8807 9.69479 40.2982 13.5119 38.4481C16.0319 37.2281 18.5453 35.9812 21.0519 34.7411C21.1796 35.3444 21.4619 35.9209 21.8584 36.4102C19.5332 37.9252 17.2349 39.4737 14.9836 41.0758C11.0455 43.8779 14.5468 50.2529 18.8477 47.6721C21.4081 46.137 23.9618 44.6086 26.5222 43.0735C26.3878 43.5829 26.3743 44.1125 26.4483 44.6287C24.4456 46.1303 22.443 47.6385 20.4538 49.1669C17.3088 51.5869 18.9956 56.2659 22.2145 56.3329C22.4901 57.0435 22.9538 57.6736 23.5384 58.1094C23.5048 58.1362 23.4779 58.1563 23.4443 58.1831C20.138 60.965 24.4792 66.6026 28.088 64.1827C28.1283 64.1559 28.1619 64.1358 28.2022 64.109C28.8743 66.2541 31.4347 67.9098 33.8271 66.5021C35.3189 65.624 36.8108 64.7458 38.3027 63.8676C39.1427 65.7245 41.3739 67.1054 43.7663 65.9658C44.8079 65.4698 45.8495 64.9871 46.8912 64.4978C44.109 67.521 47.2675 72.6425 51.4407 70.484C52.4555 69.9611 53.4568 69.4047 54.4447 68.8416C55.5199 69.6326 56.9782 69.941 58.5037 69.2304C64.2763 66.5289 69.3434 62.6208 73.4158 57.7273C74.8875 55.9642 74.6725 53.98 73.5905 52.6997C73.9131 52.103 74.2088 51.4863 74.4642 50.8428C74.6523 50.3669 74.6994 49.8708 74.6322 49.3881C79.5581 46.3582 84.2421 42.9461 87.9718 38.4883C90.7876 35.1232 87.3401 30.6117 83.3281 32.4887V32.4753Z" fill="#D9D9D9" fill-opacity="0.35"/>
</g>
<path d="M27.8677 7.4375C25.8219 10.0827 24.8386 13.3586 25.0405 16.652" stroke="#E61A6B" stroke-width="2" stroke-linecap="round" stroke-linejoin="round"/>
<path d="M42.7057 74.0229C44.3213 73.182 43.8032 71.7193 43.8032 71.7193L40.221 63.7573C40.221 63.7573 44.0666 60.096 45.331 58.642C45.9192 57.9676 46.0158 57.8099 46.4109 56.5399C46.7797 55.3399 47.6313 52.3793 48.1757 50.5224C49.2644 49.5239 54.0144 45.5123 55.5509 38.2423C55.8143 37.1386 55.7177 35.6584 54.787 35.308C53.9442 35.0014 52.6184 35.0628 52.1355 36.4116C51.0994 39.3196 49.4488 44.4612 43.6452 45.3809C38.4913 46.1955 35.6993 43.4364 32.2663 40.0379C31.5024 39.2846 30.3698 39.1269 29.4743 40.0554C28.7806 40.7736 29.3513 42.1138 30.0098 43.0422C34.0047 49.2173 39.8961 50.9691 39.8961 50.9691L38.7899 54.8581L34.514 62.1106C34.2418 62.5398 34.2418 63.2405 34.5052 63.6785L40.063 73.6287C40.5634 74.4258 41.6873 74.5484 42.7145 74.0141L42.7057 74.0229Z" stroke="#E61A6B" stroke-width="2" stroke-linejoin="round"/>
<path d="M40.8882 63.1089L49.6155 68.5395C50.4321 68.995 51.5471 68.2592 52.0388 67.5585C53.0836 66.0695 52.03 65.0447 52.03 65.0447L44.7338 59.2812" stroke="#E61A6B" stroke-width="2" stroke-linejoin="round"/>
<path d="M50.5469 18.8938C51.0211 16.5552 50.8894 14.1201 50.1431 11.8516" stroke="#E61A6B" stroke-width="2" stroke-linecap="round" stroke-linejoin="round"/>
<path d="M47.1658 15.6085C47.1658 20.6274 43.0919 24.6916 38.0609 24.6916C33.03 24.6916 28.9561 20.6274 28.9561 15.6085C28.9561 10.5896 33.03 6.52539 38.0609 6.52539C43.0919 6.52539 47.1658 10.5896 47.1658 15.6085Z" stroke="#E61A6B" stroke-width="2" stroke-linejoin="round"/>
<path d="M47.315 36.943C47.315 39.6671 45.1024 41.8744 42.3719 41.8744C39.6413 41.8744 37.4287 39.6671 37.4287 36.943C37.4287 34.219 39.6413 32.0117 42.3719 32.0117C45.1024 32.0117 47.315 34.219 47.315 36.943Z" stroke="#E61A6B" stroke-width="2" stroke-linejoin="round"/>
<path d="M19.9128 60.4806C18.3675 59.6747 18.8592 58.2733 18.8592 58.2733L22.2834 50.653C22.2834 50.653 18.6046 47.1493 17.393 45.7567C16.8223 45.1085 16.7345 44.9596 16.3569 43.7508C15.9969 42.6034 15.1892 39.7655 14.6712 37.9962C13.6351 37.0414 9.07828 33.1962 7.61202 26.2416C7.3574 25.1817 7.4452 23.7628 8.34076 23.4387C9.14852 23.1409 10.4216 23.2022 10.8782 24.4898C11.8703 27.2751 13.4507 32.1889 19.0085 33.0736C23.9429 33.8532 26.6208 31.2079 29.9045 27.9583C30.6332 27.2401 31.722 27.0824 32.5736 27.9759C33.2321 28.6678 32.6878 29.9466 32.0644 30.8401C28.2363 36.7436 22.6083 38.4254 22.6083 38.4254L23.6707 42.1479L27.7622 49.0938C28.0168 49.5055 28.0256 50.18 27.7709 50.5916L22.4503 60.1127C21.9674 60.8747 20.8962 60.9974 19.9128 60.4806Z" stroke="#E61A6B" stroke-width="2" stroke-linejoin="round"/>
<path d="M21.6425 50.0392L13.2927 55.2421C12.5113 55.68 11.4401 54.9706 10.966 54.3049C9.9651 52.8772 10.9748 51.9049 10.9748 51.9049L17.9549 46.3867" stroke="#E61A6B" stroke-width="2" stroke-linejoin="round"/>
<path d="M15.4966 24.9985C15.4966 27.5999 17.6126 29.7196 20.229 29.7196C22.8455 29.7196 24.9527 27.6086 24.9527 24.9985C24.9527 22.3883 22.8367 20.2773 20.229 20.2773C17.6213 20.2773 15.4966 22.3883 15.4966 24.9985Z" stroke="#E61A6B" stroke-width="2" stroke-linejoin="round"/>
<path d="M52.4162 51.5217L55.7965 57.5654C56.2618 58.31 57.3066 58.4238 58.2637 57.9246C59.7651 57.145 59.2909 55.7786 59.2909 55.7786L55.9545 48.3685C55.9545 48.3685 59.528 44.9612 60.7133 43.6036C61.2664 42.9729 61.3455 42.8328 61.7142 41.6503C62.0566 40.5291 62.8556 37.7788 63.3561 36.0533C64.3658 35.1248 68.7909 31.3847 70.2221 24.6228C70.4679 23.5892 70.3801 22.214 69.5109 21.8987C68.7294 21.6097 67.4915 21.671 67.0437 22.9235C66.0779 25.6301 64.5414 30.4125 59.1417 31.2709C54.3478 32.0329 51.7401 29.4577 48.5442 26.2957C47.833 25.595 46.7794 25.4461 45.9453 26.3133C45.3044 26.9789 45.8312 28.2315 46.4458 29.0899C47.5433 30.7804 48.7812 32.1117 50.0017 33.1541" stroke="#E61A6B" stroke-width="2" stroke-linejoin="round"/>
<path d="M56.5693 47.7827L64.6909 52.8366C65.4459 53.2658 66.4908 52.5738 66.9473 51.9169C67.9219 50.533 66.9385 49.5783 66.9385 49.5783L60.1516 44.209" stroke="#E61A6B" stroke-width="2" stroke-linejoin="round"/>
<path d="M62.5574 23.4296C62.5574 25.9609 60.4941 28.0193 57.9567 28.0193C55.4193 28.0193 53.356 25.9697 53.356 23.4296C53.356 20.8895 55.4193 18.8398 57.9567 18.8398C60.4941 18.8398 62.5574 20.8895 62.5574 23.4296Z" stroke="#E61A6B" stroke-width="2" stroke-linejoin="round"/>
<defs>
<clipPath id="clip0_323_665">
<rect width="82" height="68" fill="white" transform="translate(7 3)"/>
</clipPath>
</defs>
</svg>
