<svg width="82" height="68" viewBox="0 0 82 68" fill="none" xmlns="http://www.w3.org/2000/svg">
<g clip-path="url(#clip0_435_877)">
<path d="M76.3281 29.4753C74.4129 30.3736 72.5043 31.2785 70.5891 32.1835C71.0528 31.3992 71.4493 30.5613 71.7449 29.6429C72.5043 27.29 70.3539 24.8499 68.0757 24.7627C68.0623 24.6488 68.0421 24.5348 68.0152 24.4209C71.5165 22.4501 74.9303 20.3586 77.652 17.342C80.6022 14.064 76.9329 9.4118 73.0083 11.3424C67.6927 13.9568 62.377 16.5711 57.0613 19.1855C57.7602 18.3945 58.3381 17.5364 58.701 16.5443C60.8985 15.1299 63.0557 13.6752 65.1726 12.1468C69.0837 9.32466 65.5624 2.88262 61.3085 5.55061C58.6204 7.23988 55.892 8.84201 53.1232 10.3838C54.0238 8.17166 51.9338 5.37632 49.4809 5.20203C49.8908 3.57979 49.1113 1.58886 47.6866 0.811253C45.0523 -0.636697 42.6666 0.140906 39.9315 0.958729C36.3227 2.03799 32.7543 3.25132 29.2329 4.59201C22.4992 7.15944 15.9538 10.176 9.6166 13.6015C6.64627 15.2036 7.41237 18.4615 9.55612 19.8759C6.94868 21.1161 4.3614 22.3696 1.82116 23.6902C-0.70564 25.0041 -0.36291 28.3826 1.3709 30.0116C-0.631718 32.8807 2.69479 37.2982 6.51187 35.4481C9.03194 34.2281 11.5453 32.9812 14.0519 31.7411C14.1796 32.3444 14.4619 32.9209 14.8584 33.4102C12.5332 34.9252 10.2349 36.4737 7.98359 38.0758C4.04555 40.8779 7.54678 47.2529 11.8477 44.6721C14.4081 43.137 16.9618 41.6086 19.5222 40.0735C19.3878 40.5829 19.3743 41.1125 19.4483 41.6287C17.4456 43.1303 15.443 44.6385 13.4538 46.1669C10.3088 48.5869 11.9956 53.2659 15.2145 53.3329C15.4901 54.0435 15.9538 54.6736 16.5384 55.1094C16.5048 55.1362 16.4779 55.1563 16.4443 55.1831C13.138 57.965 17.4792 63.6026 21.088 61.1827C21.1283 61.1559 21.1619 61.1358 21.2022 61.109C21.8743 63.2541 24.4347 64.9098 26.8271 63.5021C28.3189 62.624 29.8108 61.7458 31.3027 60.8676C32.1427 62.7245 34.3739 64.1054 36.7663 62.9658C37.8079 62.4698 38.8495 61.9871 39.8912 61.4978C37.109 64.521 40.2675 69.6425 44.4407 67.484C45.4555 66.9611 46.4568 66.4047 47.4447 65.8416C48.5199 66.6326 49.9782 66.941 51.5037 66.2304C57.2763 63.5289 62.3434 59.6208 66.4158 54.7273C67.8875 52.9642 67.6725 50.98 66.5905 49.6997C66.9131 49.103 67.2088 48.4863 67.4642 47.8428C67.6523 47.3669 67.6994 46.8708 67.6322 46.3881C72.5581 43.3582 77.2421 39.9461 80.9718 35.4883C83.7876 32.1232 80.3401 27.6117 76.3281 29.4887V29.4753Z" fill="#D9D9D9" fill-opacity="0.35"/>
</g>
<g clip-path="url(#clip1_435_877)">
<path d="M40.8101 23.0391C45.4601 23.0391 49.2301 26.8091 49.2301 31.4591C49.2301 36.1091 45.4601 39.8791 40.8101 39.8791C36.1601 39.8791 32.3901 36.1091 32.3901 31.4591C32.3901 26.8091 36.1601 23.0391 40.8101 23.0391Z" stroke="#E61A6B" stroke-width="2" stroke-linejoin="round"/>
<path d="M46.6299 49.8398V57.4198" stroke="#E61A6B" stroke-width="2" stroke-linecap="round" stroke-linejoin="round"/>
<path d="M44.9302 38.8102C52.0302 39.8102 54.2102 42.1202 54.7902 48.9102L54.8302 52.8402C60.3002 47.8502 65.7702 42.3402 68.8302 37.8202C77.3802 25.1602 67.8802 8.99023 53.4202 8.99023C47.2602 8.99023 41.8202 12.0002 38.4402 16.6202C35.0702 12.0002 29.6302 8.99023 23.4702 8.99023C9.25024 9.00023 0.160238 24.0002 7.74024 37.4302C12.1802 45.2902 22.0002 54.0102 29.3502 59.8602L29.3302 45.4602C29.3302 45.4602 20.1802 39.8802 15.7702 26.1202C15.0402 24.2202 15.0002 22.3102 16.4902 21.3202C17.6702 20.5402 19.9102 20.2902 20.9602 22.4502C20.9602 22.4502 25.5402 33.4202 34.5902 37.1402" stroke="#E61A6B" stroke-width="2" stroke-linejoin="round"/>
</g>
<defs>
<clipPath id="clip0_435_877">
<rect width="82" height="68" fill="white"/>
</clipPath>
<clipPath id="clip1_435_877">
<rect width="69.06" height="52.86" fill="white" transform="translate(4 8)"/>
</clipPath>
</defs>
</svg>
