<svg width="175" height="20" viewBox="0 0 175 20" fill="none" xmlns="http://www.w3.org/2000/svg">
<path d="M1.07758 9.40977C23.4688 7.13402 45.8898 5.63682 68.3407 4.91817C90.7916 4.19951 113.223 4.32926 135.634 5.30743C148.277 5.82646 160.913 6.605 173.542 7.64306C174.982 7.76284 174.982 3.27123 173.542 3.15146C151.151 1.32487 128.725 0.291818 106.264 0.0522661C83.8031 -0.187286 61.3746 0.396619 38.9784 1.80399C26.3399 2.58253 13.7062 3.61561 1.07758 4.9032C-0.355459 5.03795 -0.362922 9.52955 1.07758 9.3948V9.40977Z" fill="#E61A6B"/>
<path d="M25.8872 19.0531C42.4865 14.9907 59.1406 12.0861 75.8494 10.3394C92.5582 8.59267 109.21 8.00378 125.804 8.57271C135.208 8.88213 144.608 9.56087 154.002 10.6089C155.443 10.7736 155.435 6.282 154.002 6.11731C137.308 4.26078 120.594 3.55709 103.861 4.00625C87.1271 4.45541 70.4904 6.0574 53.9507 8.81225C44.5763 10.3594 35.2218 12.2758 25.8872 14.5615C24.4766 14.9059 24.4542 19.3975 25.8872 19.0531Z" fill="#E61A6B"/>
</svg>
