<svg width="69" height="58" viewBox="0 0 69 58" fill="none" xmlns="http://www.w3.org/2000/svg">
<g clip-path="url(#clip0_111_258)">
<path d="M67.6721 36.5489L56.6296 7.4131C55.1664 3.57826 51.417 0.991441 47.279 0.991441C43.1409 0.991441 39.3915 3.57826 37.9283 7.4131C37.5168 8.52498 37.2881 9.70494 37.2881 10.9076V23.6601H31.5726V10.9076C31.5954 5.41626 27.1144 0.96875 21.6046 0.96875C17.4666 0.96875 13.7172 3.55557 12.254 7.39041L1.21151 36.5489C0.5485 38.3188 0.205566 40.1568 0.205566 42.0402C0.205566 50.6402 7.24714 57.6065 15.8891 57.6065C24.531 57.6065 31.5726 50.6175 31.5726 42.0402V40.6333H37.2881V42.0402C37.2881 50.6402 44.3297 57.6065 52.9717 57.6065C61.6136 57.6065 68.6552 50.6175 68.6552 42.0402C68.6552 40.1568 68.3122 38.3188 67.6492 36.5489H67.6721ZM15.8891 51.9336C10.3793 51.9336 5.89827 47.4861 5.89827 42.0175C5.89827 40.8148 6.10403 39.6349 6.53841 38.523C8.0016 34.6882 11.751 32.1013 15.8891 32.1013C21.3989 32.1013 25.8799 36.5489 25.8799 42.0175C25.8799 47.4861 21.3989 51.9336 15.8891 51.9336ZM52.9945 51.9336C47.4847 51.9336 43.0037 47.4861 43.0037 42.0175C43.0037 36.5489 47.4847 32.1013 52.9945 32.1013C57.1326 32.1013 60.882 34.6882 62.3452 38.523C62.7567 39.6349 62.9853 40.8148 62.9853 42.0175C62.9853 47.4861 58.5043 51.9336 52.9945 51.9336Z" fill="#E61A6B"/>
</g>
<defs>
<clipPath id="clip0_111_258">
<rect width="68.4725" height="56.6377" fill="white" transform="translate(0.205566 0.96875)"/>
</clipPath>
</defs>
</svg>
