<svg width="70" height="70" viewBox="0 0 70 70" fill="none" xmlns="http://www.w3.org/2000/svg">
<g clip-path="url(#clip0_121_8601)">
<path d="M69.151 67.1798L53.2657 38.2974C53.0157 37.8253 52.5158 37.5753 51.9604 37.5476C51.4327 37.5476 50.9329 37.8808 50.7107 38.3529L45.2119 49.7393L28.91 19.8293V14.4139H44.7953C45.3785 14.4139 45.9062 14.0528 46.1284 13.5252C46.3506 12.9975 46.2395 12.3588 45.8229 11.9422L41.074 7.19326L45.8229 2.44432C46.2395 2.02775 46.3506 1.41678 46.1284 0.861346C45.9062 0.333686 45.3785 -0.0273438 44.7953 -0.0273438H27.4659C26.6605 -0.0273438 26.0218 0.611402 26.0218 1.41678V19.8293L0.166454 67.1798C-0.0834896 67.6242 -0.0557181 68.1796 0.166454 68.5962C0.388627 69.0127 0.888515 69.2905 1.41617 69.2905H67.8457C68.3456 69.2905 68.8177 69.0127 69.0955 68.5684C69.3454 68.1241 69.3732 67.5964 69.0955 67.152L69.151 67.1798ZM27.4381 23.2452L34.8254 36.7977L31.9371 39.686L28.6045 35.2425C28.0491 34.5205 26.8271 34.5205 26.2995 35.2425L22.9669 39.686L20.0787 36.7977L27.4659 23.2452H27.4381Z" fill="#E61A6B"/>
</g>
<defs>
<clipPath id="clip0_121_8601">
<rect width="69.3178" height="69.3178" fill="white"/>
</clipPath>
</defs>
</svg>
