<svg width="69" height="82" viewBox="0 0 69 82" fill="none" xmlns="http://www.w3.org/2000/svg">
<g clip-path="url(#clip0_121_8602)">
<path d="M20.4543 47.7656L29.3125 81.0135L0 47.7656H20.4543Z" fill="#E61A6B"/>
<path d="M20.6154 43.0277H0L13.5518 29.4754C13.989 29.0383 14.6102 28.7852 15.2314 28.7852H28.7603L20.6154 43.0277Z" fill="#E61A6B"/>
<path d="M43.7618 43.0273H23.7217L34.2364 28.7617L43.7618 43.0273Z" fill="#E61A6B"/>
<path d="M43.0943 47.8809L34.2361 81.1518L25.3779 47.8809H43.0943Z" fill="#E61A6B"/>
<path d="M47.8573 43.0277L39.7124 28.7852H53.2412C53.8625 28.7852 54.4837 29.0383 54.9208 29.4754L68.4727 43.0277H47.8573Z" fill="#E61A6B"/>
<path d="M48.0183 47.8809H68.4726L39.1602 81.1518L48.0183 47.8809Z" fill="#E61A6B"/>
<path d="M34.2361 13.5523C32.9246 13.5523 31.8662 12.4939 31.8662 11.1823V2.36992C31.8662 1.05841 32.9246 0 34.2361 0C35.5475 0 36.6059 1.05841 36.6059 2.36992V11.1593C36.6059 12.4708 35.5475 13.5293 34.2361 13.5293V13.5523Z" fill="#E61A6B"/>
<path d="M10.6298 18.4534L6.23521 10.8374C5.56797 9.70996 5.95911 8.23738 7.10952 7.59313C8.23693 6.92587 9.70945 7.31703 10.3537 8.46747L14.7483 16.0834C15.4155 17.2109 15.0244 18.6834 13.8739 19.3277C12.7465 19.9719 11.297 19.6038 10.6298 18.4534Z" fill="#E61A6B"/>
<path d="M54.5987 19.3281C53.4713 18.6608 53.0801 17.2113 53.7244 16.0838L58.1189 8.46787C58.7862 7.34043 60.2357 6.94928 61.3631 7.59353C62.4905 8.26079 62.8816 9.71035 62.2374 10.8378L57.8428 18.4538C57.1756 19.6042 55.7261 19.9723 54.5987 19.3281Z" fill="#E61A6B"/>
</g>
<defs>
<clipPath id="clip0_121_8602">
<rect width="68.4725" height="81.1525" fill="white"/>
</clipPath>
</defs>
</svg>
