<svg width="201" height="201" viewBox="0 0 201 201" fill="none" xmlns="http://www.w3.org/2000/svg">
<circle cx="100.291" cy="100.352" r="100" fill="white"/>
<path d="M130.108 128.103C134.253 119.727 136.58 110.307 136.58 100.351C136.58 90.396 134.239 80.9764 130.108 72.6003C127.894 68.1302 125.186 63.9562 122.028 60.1771C110.479 46.3156 93.106 37.4883 73.7168 37.4883C39.056 37.4883 10.8536 65.6907 10.8536 100.351C10.8536 135.012 39.056 163.215 73.7168 163.215C93.106 163.215 110.479 154.387 122.013 140.54C117.656 138.157 113.75 135.04 110.394 131.431C101.567 141.851 88.3962 148.479 73.7027 148.479C47.1642 148.479 25.5753 126.89 25.5753 100.351C25.5753 73.813 47.1642 52.224 73.7027 52.224C88.3962 52.224 101.553 58.8657 110.394 69.2724C113.764 73.2489 116.486 77.7613 118.432 82.6826C120.603 88.1539 121.83 94.1046 121.83 100.337C121.83 106.57 120.603 112.521 118.432 117.992C121.393 122.265 125.412 125.734 130.093 128.089L130.108 128.103Z" fill="#2DB4AB"/>
<path d="M143.941 54.5946C136.002 54.5946 128.528 56.6252 122.014 60.1928C125.172 63.986 127.894 68.16 130.094 72.6159C134.268 70.529 138.949 69.3163 143.927 69.3163C161.046 69.3163 174.978 83.2483 174.978 100.367C174.978 117.486 161.046 131.418 143.927 131.418C138.949 131.418 134.268 130.219 130.094 128.118C125.412 125.777 121.393 122.294 118.432 118.022C114.949 113.002 112.89 106.924 112.89 100.367C112.89 93.8101 114.949 87.7324 118.432 82.7124C116.486 77.7911 113.764 73.2787 110.394 69.3022C102.822 77.4809 98.1403 88.367 98.1403 100.367C98.1403 112.367 102.808 123.267 110.394 131.432C113.75 135.056 117.642 138.158 122.014 140.541C128.528 144.109 136.002 146.14 143.941 146.14C169.182 146.14 189.728 125.594 189.728 100.353C189.728 75.1119 169.182 54.5664 143.941 54.5664V54.5946Z" fill="#9E1A77"/>
</svg>
