<svg width="720" height="749" viewBox="0 0 720 749" fill="none" xmlns="http://www.w3.org/2000/svg">
<g opacity="0.4">
<path d="M-346.894 140.295C-383.98 212.408 -404.794 293.506 -404.794 379.217C-404.794 464.928 -383.854 546.025 -346.894 618.139C-327.09 656.624 -302.87 692.559 -274.614 725.095C-171.303 844.435 -15.8949 920.434 157.552 920.434C467.611 920.434 719.897 677.627 719.897 379.217C719.897 80.8071 467.611 -162 157.552 -162C-15.8948 -162 -171.303 -86.0014 -274.488 33.2168C-235.51 53.734 -200.568 80.5642 -170.546 111.643C-91.5805 21.9263 26.2368 -35.1333 157.678 -35.1333C395.079 -35.1333 588.204 150.735 588.204 379.217C588.204 607.698 395.079 793.567 157.678 793.567C26.2368 793.567 -91.4545 736.386 -170.546 646.79C-200.694 612.554 -225.04 573.705 -242.448 531.335C-261.874 484.231 -272.848 432.999 -272.848 379.338C-272.848 325.678 -261.874 274.446 -242.448 227.341C-268.938 190.556 -304.888 160.69 -346.768 140.416L-346.894 140.295Z" fill="#C5C5C5" fill-opacity="0.7" style="mix-blend-mode:multiply"/>
</g>
</svg>
